<svg width="44" height="54" viewBox="0 0 44 54" fill="none" xmlns="http://www.w3.org/2000/svg">
    <path d="M22 27.0002C23.4667 27.0002 24.7227 26.4775 25.768 25.4322C26.8116 24.3886 27.3334 23.1335 27.3334 21.6668C27.3334 20.2002 26.8116 18.9442 25.768 17.8988C24.7227 16.8553 23.4667 16.3335 22 16.3335C20.5334 16.3335 19.2782 16.8553 18.2347 17.8988C17.1894 18.9442 16.6667 20.2002 16.6667 21.6668C16.6667 23.1335 17.1894 24.3886 18.2347 25.4322C19.2782 26.4775 20.5334 27.0002 22 27.0002ZM22 46.6002C27.4222 41.6224 31.4445 37.0997 34.0667 33.0322C36.6889 28.9664 38 25.3557 38 22.2002C38 17.3557 36.4551 13.3886 33.3654 10.2988C30.2774 7.21083 26.4889 5.66683 22 5.66683C17.5111 5.66683 13.7218 7.21083 10.632 10.2988C7.54402 13.3886 6.00002 17.3557 6.00002 22.2002C6.00002 25.3557 7.31113 28.9664 9.93335 33.0322C12.5556 37.0997 16.5778 41.6224 22 46.6002ZM22 53.6668C14.8445 47.5779 9.50046 41.9219 5.96802 36.6988C2.4338 31.4775 0.666687 26.6446 0.666687 22.2002C0.666687 15.5335 2.81158 10.2224 7.10135 6.26683C11.3894 2.31127 16.3556 0.333496 22 0.333496C27.6445 0.333496 32.6107 2.31127 36.8987 6.26683C41.1885 10.2224 43.3334 15.5335 43.3334 22.2002C43.3334 26.6446 41.5671 31.4775 38.0347 36.6988C34.5005 41.9219 29.1556 47.5779 22 53.6668Z"
          fill="#CA1391"/>
</svg>
