<svg width="21" height="17" viewBox="0 0 21 17" fill="none" xmlns="http://www.w3.org/2000/svg">
    <path d="M2.5 16.1978C1.95 16.1978 1.47933 16.0021 1.088 15.6108C0.696 15.2188 0.5 14.7478 0.5 14.1978V2.19775C0.5 1.64775 0.696 1.17709 1.088 0.785754C1.47933 0.393754 1.95 0.197754 2.5 0.197754H18.5C19.05 0.197754 19.521 0.393754 19.913 0.785754C20.3043 1.17709 20.5 1.64775 20.5 2.19775V14.1978C20.5 14.7478 20.3043 15.2188 19.913 15.6108C19.521 16.0021 19.05 16.1978 18.5 16.1978H2.5ZM10.5 9.02275C10.5833 9.02275 10.6707 9.01009 10.762 8.98475C10.854 8.96009 10.9417 8.92275 11.025 8.87275L18.1 4.44775C18.2333 4.36442 18.3333 4.26042 18.4 4.13575C18.4667 4.01042 18.5 3.87275 18.5 3.72275C18.5 3.38942 18.3583 3.13942 18.075 2.97275C17.7917 2.80609 17.5 2.81442 17.2 2.99775L10.5 7.19775L3.8 2.99775C3.5 2.81442 3.20833 2.81009 2.925 2.98475C2.64167 3.16009 2.5 3.40609 2.5 3.72275C2.5 3.88942 2.53333 4.03509 2.6 4.15975C2.66667 4.28509 2.76667 4.38109 2.9 4.44775L9.975 8.87275C10.0583 8.92275 10.146 8.96009 10.238 8.98475C10.3293 9.01009 10.4167 9.02275 10.5 9.02275Z"
          fill="#FF22BA"/>
</svg>
