<svg width="19" height="19" viewBox="0 0 19 19" fill="none" xmlns="http://www.w3.org/2000/svg">
    <path d="M16.73 12.4575L14.19 12.1675C13.8914 12.1324 13.5886 12.1655 13.3046 12.2642C13.0206 12.363 12.7626 12.5248 12.55 12.7375L10.71 14.5775C7.87123 13.1337 5.56382 10.8263 4.12004 7.98752L5.97004 6.13752C6.40004 5.70752 6.61004 5.10752 6.54004 4.49752L6.25004 1.97752C6.19335 1.4897 5.95923 1.03976 5.59228 0.713368C5.22532 0.386979 4.75115 0.206937 4.26004 0.207521H2.53004C1.40004 0.207521 0.460041 1.14752 0.530041 2.27752C1.06004 10.8175 7.89004 17.6375 16.42 18.1675C17.55 18.2375 18.49 17.2975 18.49 16.1675V14.4375C18.5 13.4275 17.74 12.5775 16.73 12.4575Z"
          fill="#CA1391"/>
</svg>
