<svg width="19" height="18" viewBox="0 0 19 18" fill="none" xmlns="http://www.w3.org/2000/svg">
    <path d="M9.3335 16.2C13.2935 16.2 16.5335 12.96 16.5335 9C16.5335 5.04 13.2935 1.8 9.3335 1.8C5.3735 1.8 2.1335 5.04 2.1335 9C2.1335 12.96 5.3735 16.2 9.3335 16.2ZM9.3335 0C14.2835 0 18.3335 4.05 18.3335 9C18.3335 13.95 14.2835 18 9.3335 18C4.3835 18 0.333496 13.95 0.333496 9C0.333496 4.05 4.3835 0 9.3335 0ZM13.8335 10.71L13.2035 11.88L8.4335 9.27V4.5H9.7835V8.46L13.8335 10.71Z"
          fill="#CA1391"/>
</svg>
